<?xml version="1.0" encoding="utf-8"?>
<!-- Generator: Adobe Illustrator 25.1.0, SVG Export Plug-In . SVG Version: 6.00 Build 0)  -->
<svg version="1.1" id="Camada_1" xmlns="http://www.w3.org/2000/svg" xmlns:xlink="http://www.w3.org/1999/xlink" x="0px" y="0px"
	 viewBox="0 0 21 21" style="enable-background:new 0 0 21 21;" xml:space="preserve">
<path d="M20.7,7.3c0.2,0.2,0.3,0.4,0.3,0.7s-0.1,0.5-0.3,0.7L9.1,20.2c-0.2,0.2-0.4,0.3-0.7,0.3c-0.3,0-0.5-0.1-0.7-0.3l-6.6-6.6
	C1,13.5,0.9,13.3,0.9,13s0.1-0.5,0.3-0.7l1.6-1.6c0.2-0.2,0.4-0.3,0.7-0.3c0.3,0,0.5,0.1,0.7,0.3l4.3,4.4l9.4-9.4
	c0.2-0.2,0.4-0.3,0.6-0.3c0.3,0,0.5,0.1,0.7,0.3L20.7,7.3z M8,11.5L3.6,7.1c-0.3-0.3-0.3-0.6,0-0.9l1.8-1.8c0.1-0.1,0.3-0.2,0.4-0.2
	c0.2,0,0.3,0.1,0.5,0.2l2.1,2.1l5.9-5.9c0.1-0.1,0.2-0.2,0.4-0.2c0.2,0,0.3,0.1,0.5,0.2L17,2.5c0.3,0.3,0.3,0.6,0,0.9l-8.1,8.1
	c-0.1,0.1-0.2,0.2-0.4,0.2C8.3,11.7,8.1,11.6,8,11.5z"/>
</svg>
